<svg width="12" height="12" viewBox="0 0 12 12" fill="none" xmlns="http://www.w3.org/2000/svg">
<path fill-rule="evenodd" clip-rule="evenodd" d="M6.95617 11.6243C6.40097 12.0727 5.59707 12.0727 5.04187 11.6243C4.8836 11.497 4.61955 11.2748 4.28425 10.9772C3.72841 10.4822 3.17108 9.95351 2.64749 9.40219C2.10644 8.84198 1.60686 8.24505 1.15251 7.6159C0.473096 6.77368 0.0720921 5.75019 0.00257892 4.68092C-0.0358105 3.68663 0.355822 2.72231 1.082 2.02305C2.42599 0.741299 4.54283 0.646907 6.00127 1.8037C7.45914 0.645217 9.57728 0.739667 10.9205 2.02305C11.6432 2.72024 12.0337 3.68023 11.9977 4.67068C11.9312 5.74224 11.5302 6.76838 10.8485 7.61152C10.3931 8.24265 9.89171 8.84108 9.3483 9.40219C8.82471 9.95131 8.26963 10.4822 7.71379 10.9772C7.37849 11.2748 7.1137 11.4963 6.95617 11.6243Z" fill="#FF4876"/>
</svg>
